<svg width="1000" height="1000" viewBox="0 0 1000 1000" fill="none" xmlns="http://www.w3.org/2000/svg">
<path d="M269.856 581.148C269.856 581.148 119.646 607.313 104.525 672.727C89.403 738.14 251.71 781.413 282.961 775.375C314.213 769.337 302.115 870.979 195.255 848.839C88.3948 826.7 23.792 791.672 12.7861 727.07C0.184732 653.103 142.734 607.592 178.33 597.616C212.618 588.007 265.765 579.787 269.856 581.148V581.148Z" fill="white"/>
<path d="M322.739 764.459C343.326 726.833 343.882 727.167 331.496 710.575C319.114 693.983 323.029 671.613 336.713 650.521C348.124 632.921 341.804 631.16 340.028 620.589C338.075 608.967 346.948 588.765 445.668 459.661C445.668 459.661 582.631 281.481 645.135 200.057C692.302 138.612 772.23 170.267 808.508 197.092C844.786 223.918 898.495 295.961 850.934 357.922C789.771 437.602 651.187 617.71 651.187 617.71C544.944 756.136 532.556 757.308 519.153 758.475C507.514 759.487 502.37 760.376 492.191 770.342C476.751 785.463 458.542 798.998 437.885 792.192C418.64 785.851 418.023 786.467 387.04 814.272C363.014 835.835 333.915 839.999 321.754 830.662C309.592 821.326 308.807 789.85 322.694 764.466L322.739 764.459ZM464.534 726.904L384.29 664.808C377.608 659.894 371.314 662.497 366.925 668.161L363.755 671.722C357.163 679.114 354.754 686.346 356.075 694.13C357.581 702.929 362.274 707.159 372.681 715.138C387.945 726.835 404.006 739.935 419.527 751.81C428.021 758.306 434.259 762.859 442.753 762.39C450.266 761.976 454.985 759.57 462.126 750.836L467.52 744.238C473.756 736.609 471.2 732.062 464.527 726.906L464.534 726.904ZM679.687 243.558L504.837 469.916L397.828 609.848C388.008 622.69 392.472 632.599 400.11 638.468C443.313 671.672 449.466 676.419 487.935 705.991C498.537 714.223 509.688 714.733 518.725 703.708C518.725 703.708 591.214 609.717 626.298 563.111C684.296 486.067 799.347 335.152 799.347 335.152C811.644 318.553 818.105 298.211 811.797 280.689C799.868 247.537 763.122 218.781 727.976 216.297C709.539 214.994 692.945 227.747 679.69 243.558L679.687 243.558Z" fill="white"/>
</svg>
