<svg width="1000" height="1000" viewBox="0 0 1000 1000" fill="none" xmlns="http://www.w3.org/2000/svg">
    <defs>
        <linearGradient id="paint0_linear_1_2" x1="329.584" y1="813.214" x2="798.809" y2="209.548" gradientUnits="userSpaceOnUse">
            <stop stop-color="#55D5B8"/>
            <stop offset="1" stop-color="#26665C"/>
        </linearGradient>
        <linearGradient id="paint1_linear_1_2" x1="331.301" y1="818.06" x2="792.039" y2="217.852" gradientUnits="userSpaceOnUse">
            <stop stop-color="#29836E"/>
            <stop offset="1" stop-color="#18403B"/>
        </linearGradient>
        <clipPath id="clip0_1_2">
            <rect width="1000" height="1000" fill="white"/>
        </clipPath>
    </defs>
    <g clip-path="url(#clip0_1_2)">
        <path d="M270.757 581.147C270.757 581.147 120.023 607.119 104.848 672.05C89.6736 736.98 252.548 779.934 283.908 773.941C315.269 767.947 303.13 868.839 195.896 846.863C88.6619 824.886 23.8332 790.117 12.7889 725.992C0.143421 652.571 143.191 607.395 178.912 597.493C213.32 587.955 266.653 579.796 270.757 581.147V581.147Z" fill="#2C8C76"/>
        <path d="M445.572 771.037L345.4 701.18L363.854 630.005L685.457 199.004L793.538 224.046L838.35 312.357L520.7 726.223L445.572 771.037Z" fill="url(#paint0_linear_1_2)"/>
        <path d="M326.544 760.449C346.873 723.296 347.421 723.626 335.189 707.243C322.963 690.859 326.829 668.77 340.341 647.944C351.609 630.566 345.369 628.827 343.615 618.388C341.687 606.913 350.448 586.965 447.926 459.484C447.926 459.484 583.168 283.545 644.885 203.145C691.459 142.473 770.381 173.73 806.203 200.218C842.026 226.706 895.058 297.844 848.097 359.024C787.701 437.703 650.861 615.546 650.861 615.546C545.954 752.231 533.722 753.388 520.488 754.54C508.994 755.539 503.915 756.417 493.864 766.257C478.618 781.19 460.638 794.553 440.241 787.833C421.239 781.572 420.629 782.182 390.036 809.636C366.312 830.927 337.579 835.039 325.571 825.82C313.561 816.602 312.786 785.522 326.499 760.457L326.544 760.449ZM466.555 723.367L387.32 662.051C380.723 657.199 374.508 659.769 370.175 665.363L367.043 668.878C360.534 676.178 358.156 683.319 359.46 691.006C360.948 699.692 365.582 703.869 375.858 711.748C390.93 723.298 406.787 736.234 422.115 747.959C430.501 754.374 436.662 758.87 445.048 758.406C452.467 757.998 457.127 755.621 464.178 746.999L469.504 740.482C475.662 732.95 473.138 728.459 466.549 723.369L466.555 723.367ZM679.002 246.099L506.351 469.611L400.688 607.782C390.992 620.463 395.4 630.247 402.942 636.042C445.601 668.83 451.676 673.516 489.661 702.716C500.131 710.846 511.142 711.348 520.065 700.462C520.065 700.462 591.642 607.653 626.285 561.633C683.554 485.56 797.157 336.542 797.157 336.542C809.3 320.152 815.68 300.065 809.45 282.764C797.672 250.028 761.387 221.634 726.685 219.181C708.48 217.895 692.093 230.486 679.006 246.099H679.002Z" fill="url(#paint1_linear_1_2)"/>
    </g>
</svg>
